<svg width="102" height="98" viewBox="0 0 102 98" fill="none" xmlns="http://www.w3.org/2000/svg">
<rect width="102" height="98" rx="15" fill="#70948A"/>
<path d="M45.2434 31.1844C47.9048 26.5747 54.5583 26.5747 57.2197 31.1844L73.0456 58.5956C75.707 63.2052 72.3802 68.9673 67.0574 68.9673H35.4057C30.0829 68.9673 26.7562 63.2052 29.4176 58.5956L45.2434 31.1844Z" stroke="white" stroke-width="4.93895"/>
<path d="M49.5158 38.4222H53.1605L52.5477 53.8719H50.0964L49.5158 38.4222ZM51.3543 61.1935C50.7522 61.1935 50.2469 61 49.8384 60.613C49.4298 60.2044 49.2256 59.7098 49.2256 59.1293C49.2256 58.5487 49.4298 58.0649 49.8384 57.6778C50.2469 57.2693 50.7522 57.065 51.3543 57.065C51.9564 57.065 52.451 57.2693 52.838 57.6778C53.2251 58.0649 53.4186 58.5487 53.4186 59.1293C53.4186 59.7098 53.2143 60.2044 52.8057 60.613C52.4187 61 51.9349 61.1935 51.3543 61.1935Z" fill="white"/>
</svg>
