<svg width="102" height="98" viewBox="0 0 102 98" fill="none" xmlns="http://www.w3.org/2000/svg">
<rect width="102" height="98" rx="15" fill="#70948A"/>
<path d="M60.7273 67.8635V63.7726C60.7273 61.6027 59.8653 59.5216 58.3309 57.9872C56.7965 56.4528 54.7154 55.5908 52.5455 55.5908H36.1818C34.0119 55.5908 31.9308 56.4528 30.3964 57.9872C28.862 59.5216 28 61.6027 28 63.7726V67.8635" stroke="white" stroke-width="4.5" stroke-linecap="round" stroke-linejoin="round"/>
<path d="M44.3636 47.409C48.8823 47.409 52.5454 43.7459 52.5454 39.2272C52.5454 34.7085 48.8823 31.0454 44.3636 31.0454C39.8449 31.0454 36.1817 34.7085 36.1817 39.2272C36.1817 43.7459 39.8449 47.409 44.3636 47.409Z" stroke="white" stroke-width="4.5" stroke-linecap="round" stroke-linejoin="round"/>
<path d="M72.9999 67.8633V63.7724C72.9986 61.9595 72.3952 60.1985 71.2846 58.7657C70.1739 57.333 68.6189 56.3097 66.8636 55.8564" stroke="white" stroke-width="4.5" stroke-linecap="round" stroke-linejoin="round"/>
<path d="M58.6817 31.3112C60.4417 31.7618 62.0016 32.7853 63.1155 34.2204C64.2295 35.6555 64.8341 37.4206 64.8341 39.2373C64.8341 41.054 64.2295 42.819 63.1155 44.2542C62.0016 45.6893 60.4417 46.7128 58.6817 47.1634" stroke="white" stroke-width="4.5" stroke-linecap="round" stroke-linejoin="round"/>
</svg>
