<svg width="130" height="67" viewBox="0 0 130 67" fill="none" xmlns="http://www.w3.org/2000/svg">
<path d="M11.9335 26.1507L16.896 26.0945L18.9251 21.7355C18.9251 21.7355 18.5208 21.6943 18.2614 21.6713C15.7828 21.452 13.7795 21.4697 11.2338 21.4697C10.1979 21.4697 10.3915 21.3125 9.41107 21.7536C8.76509 22.0442 8.20804 23.111 8.20804 23.111L3.29769 30.9428L2.82249 31.7008C2.46182 32.2761 2.44151 32.8698 2.78842 33.4391C3.57611 34.7319 4.55293 37.361 5.0281 36.6031L11.2056 26.7502C11.5225 26.2449 11.9335 26.1507 11.9335 26.1507Z" fill="#70948A" stroke="#70948A" stroke-width="0.596378"/>
<path d="M18.9867 48.6048C18.7962 46.6761 21.3751 44.0892 21.3751 44.0892L18.4731 40.2555C18.4731 40.2555 18.2475 40.5935 18.1058 40.812C16.7516 42.8996 15.883 44.4409 14.6716 46.5175C14.1965 47.332 13.9174 47.7103 14.0353 48.6712C14.1215 49.3742 14.6716 50.3697 14.6716 50.3697L19.2935 58.3751C19.4682 58.6777 19.7322 59.0814 19.8813 59.3396C20.2666 60.0071 21.0741 60.2342 21.6705 60.2342C23.1844 60.2341 25.5526 60.2705 25.1054 59.4958C22.5707 55.1056 19.8812 50.6122 19.5831 50.0957C19.2849 49.5793 19.0293 49.0358 18.9867 48.6048Z" fill="#70948A" stroke="#70948A" stroke-width="0.596378"/>
<path d="M43.7692 55.0185C42.0036 54.2191 41.0528 50.6923 41.0528 50.6923L36.2817 51.2886C36.2817 51.2886 36.4616 51.6531 36.5799 51.885C37.7108 54.1015 38.6113 55.6245 39.804 57.7118C40.2718 58.5306 40.4599 58.9614 41.351 59.3398C42.003 59.6166 43.1401 59.6379 43.1401 59.6379L52.384 59.6379C52.7333 59.6379 53.2149 59.6112 53.5131 59.6112C54.2838 59.6112 54.8843 59.0255 55.1824 58.5089C55.9393 57.1979 57.1549 55.1651 56.2604 55.1651C51.1911 55.1651 45.9549 55.2475 45.3586 55.2475C44.7622 55.2475 44.1637 55.1972 43.7692 55.0185Z" fill="#70948A" stroke="#70948A" stroke-width="0.596378"/>
<path d="M27.6188 8.79423C29.3843 9.59363 30.3352 13.1205 30.3352 13.1205L35.1062 12.5241C35.1062 12.5241 34.9263 12.1597 34.808 11.9277C33.6771 9.7112 32.7767 8.18826 31.584 6.10092C31.1161 5.28219 30.9281 4.85139 30.037 4.473C29.385 4.19614 28.2478 4.17481 28.2478 4.17481L19.004 4.17481C18.6546 4.17481 18.173 4.20154 17.8749 4.20154C17.1041 4.20156 16.5037 4.78726 16.2055 5.3038C15.4486 6.61487 14.233 8.64764 15.1275 8.64764C20.1969 8.64766 25.433 8.56522 26.0294 8.56524C26.6258 8.56526 27.2242 8.61559 27.6188 8.79423Z" fill="#70948A" stroke="#70948A" stroke-width="0.596378"/>
<path d="M34.6638 23.4993V25.7427C36.6352 25.7766 38.1902 26.0995 39.3289 26.7114C40.4676 27.3232 41.2748 28.1389 41.7507 29.1586C42.2265 30.1613 42.4645 31.283 42.4645 32.5236C42.4645 33.3394 42.337 34.1551 42.0821 34.9709C41.8441 35.7697 41.4278 36.5004 40.8329 37.1632C40.2381 37.809 39.4394 38.3359 38.4367 38.7438C37.434 39.1516 36.1763 39.3726 34.6638 39.4066V42.2107H32.395V39.4066C30.8484 39.3726 29.5653 39.1516 28.5456 38.7438C27.5429 38.3189 26.7527 37.7751 26.1748 37.1123C25.597 36.4325 25.1891 35.6932 24.9512 34.8944C24.7133 34.0957 24.5943 33.3054 24.5943 32.5236C24.5943 31.6229 24.7218 30.7732 24.9767 29.9744C25.2486 29.1586 25.682 28.4448 26.2768 27.833C26.8886 27.2042 27.6959 26.7029 28.6986 26.329C29.7013 25.9551 30.9334 25.7597 32.395 25.7427V23.4993H34.6638ZM32.395 27.6801C31.0354 27.7141 29.9477 27.935 29.1319 28.3429C28.3332 28.7508 27.7639 29.3116 27.424 30.0254C27.0841 30.7222 26.9141 31.5464 26.9141 32.4981C26.9141 33.5008 27.1011 34.3761 27.4749 35.1239C27.8658 35.8546 28.4606 36.424 29.2594 36.8318C30.0752 37.2397 31.1204 37.4692 32.395 37.5201V27.6801ZM34.6638 37.5201C35.9724 37.4692 37.0261 37.2312 37.8248 36.8063C38.6406 36.3815 39.2269 35.8036 39.5838 35.0729C39.9577 34.3251 40.1447 33.4668 40.1447 32.4981C40.1447 31.5294 39.9747 30.6967 39.6348 29.9999C39.2949 29.2861 38.7256 28.7338 37.9268 28.3429C37.1281 27.935 36.0404 27.7141 34.6638 27.6801V37.5201ZM62.1372 32.8295C62.1372 34.2401 61.9588 35.5232 61.6019 36.6789C61.245 37.8175 60.7096 38.8033 59.9958 39.636C59.2991 40.4688 58.4238 41.1061 57.3701 41.5479C56.3334 41.9898 55.1268 42.2107 53.7502 42.2107C52.3226 42.2107 51.082 41.9898 50.0283 41.5479C48.9746 41.0891 48.0994 40.4518 47.4026 39.636C46.7058 38.8033 46.1875 37.809 45.8476 36.6534C45.5077 35.4977 45.3377 34.2146 45.3377 32.804C45.3377 30.9346 45.6436 29.3031 46.2555 27.9095C46.8673 26.5159 47.7935 25.4283 49.0341 24.6465C50.2917 23.8647 51.8723 23.4738 53.7757 23.4738C55.5942 23.4738 57.1237 23.8647 58.3643 24.6465C59.605 25.4113 60.5397 26.4989 61.1685 27.9095C61.8143 29.3031 62.1372 30.9431 62.1372 32.8295ZM47.7595 32.8295C47.7595 34.3591 47.9719 35.6762 48.3968 36.7809C48.8217 37.8855 49.476 38.7353 50.3597 39.3301C51.2605 39.9249 52.3906 40.2223 53.7502 40.2223C55.1268 40.2223 56.2485 39.9249 57.1152 39.3301C57.9989 38.7353 58.6532 37.8855 59.0781 36.7809C59.503 35.6762 59.7154 34.3591 59.7154 32.8295C59.7154 30.5352 59.2396 28.7423 58.2879 27.4506C57.3361 26.142 55.8321 25.4877 53.7757 25.4877C52.3991 25.4877 51.2605 25.7851 50.3597 26.38C49.476 26.9578 48.8217 27.799 48.3968 28.9037C47.9719 29.9914 47.7595 31.3 47.7595 32.8295ZM70.9894 23.7542C73.3687 23.7542 75.1022 24.2216 76.1899 25.1563C77.2776 26.0911 77.8214 27.4082 77.8214 29.1077C77.8214 29.8554 77.6939 30.5777 77.439 31.2745C77.2011 31.9543 76.8017 32.5661 76.2409 33.11C75.68 33.6538 74.9323 34.0872 73.9975 34.4101C73.0628 34.716 71.9157 34.8689 70.5561 34.8689H68.4657V41.9558H66.1714V23.7542H70.9894ZM70.7855 25.7172H68.4657V32.906H70.3011C71.4568 32.906 72.417 32.7871 73.1818 32.5491C73.9466 32.2942 74.5159 31.8948 74.8898 31.351C75.2637 30.8071 75.4506 30.0934 75.4506 29.2096C75.4506 28.037 75.0767 27.1617 74.3289 26.5839C73.5812 26.0061 72.4 25.7172 70.7855 25.7172ZM87.3675 41.9558H85.0732V25.7681H79.3884V23.7542H93.0268V25.7681H87.3675V41.9558ZM95.7969 23.7542H97.9383V33.7473C97.9383 34.1721 97.9298 34.6395 97.9128 35.1493C97.9128 35.6422 97.9043 36.1351 97.8873 36.6279C97.8703 37.1208 97.8448 37.5626 97.8108 37.9535C97.7938 38.3274 97.7768 38.6163 97.7598 38.8202H97.8618L107.88 23.7542H110.43V41.9558H108.288V32.0648C108.288 31.6059 108.297 31.1131 108.314 30.5862C108.331 30.0424 108.348 29.524 108.365 29.0312C108.399 28.5213 108.424 28.071 108.441 27.6801C108.458 27.2892 108.475 27.0003 108.492 26.8133H108.39L98.3461 41.9558H95.7969V23.7542ZM123.139 25.5132C122.171 25.5132 121.296 25.6832 120.514 26.0231C119.732 26.346 119.069 26.8303 118.525 27.4761C117.982 28.105 117.565 28.8782 117.276 29.7959C116.987 30.6967 116.843 31.7164 116.843 32.855C116.843 34.3506 117.072 35.6507 117.531 36.7554C118.007 37.86 118.704 38.7098 119.622 39.3046C120.556 39.8994 121.72 40.1968 123.114 40.1968C123.913 40.1968 124.669 40.1289 125.383 39.9929C126.097 39.8569 126.793 39.687 127.473 39.483V41.4715C126.793 41.7264 126.088 41.9133 125.357 42.0323C124.644 42.1513 123.785 42.2107 122.783 42.2107C120.93 42.2107 119.384 41.8283 118.143 41.0636C116.902 40.2988 115.968 39.2111 115.339 37.8006C114.727 36.39 114.421 34.733 114.421 32.8295C114.421 31.4529 114.608 30.1953 114.982 29.0567C115.373 27.918 115.934 26.9323 116.664 26.0995C117.412 25.2668 118.33 24.6295 119.418 24.1876C120.505 23.7288 121.754 23.4993 123.165 23.4993C124.1 23.4993 125 23.5928 125.867 23.7797C126.734 23.9667 127.507 24.2301 128.187 24.57L127.269 26.5074C126.708 26.2525 126.08 26.0231 125.383 25.8191C124.703 25.6152 123.955 25.5132 123.139 25.5132Z" fill="#70948A"/>
<path d="M45.5256 5.96375C49.7003 12.5239 49.9986 13.1203 49.9986 13.1203H55.0678L51.1913 6.26195C51.1913 6.26195 50.8918 5.66427 50.5949 5.36737C50.298 5.07051 50.1202 4.77107 49.7004 4.77101H49.104L47.3149 4.77101H46.1221L45.8239 4.77102C45.5257 4.771 44.9293 4.771 44.9293 5.06919C44.9293 5.06919 45.4631 5.86552 45.5256 5.96375Z" fill="#70948A" stroke="#70948A" stroke-width="0.596378"/>
<path d="M37.1519 8.67142L41.5859 6.19336L45.5256 13.6294H39.978L37.1519 8.67142Z" fill="#70948A"/>
<path fill-rule="evenodd" clip-rule="evenodd" d="M38.0709 9.54205C40.7059 9.54205 42.8419 7.40599 42.8419 4.77103C42.8419 2.13606 40.7059 0 38.0709 0C35.4359 0 33.2999 2.13606 33.2999 4.77103C33.2999 7.40599 35.4359 9.54205 38.0709 9.54205ZM38.0708 7.15657C39.3883 7.15657 40.4564 6.08853 40.4564 4.77105C40.4564 3.45357 39.3883 2.38554 38.0708 2.38554C36.7534 2.38554 35.6853 3.45357 35.6853 4.77105C35.6853 6.08853 36.7534 7.15657 38.0708 7.15657Z" fill="#70948A"/>
<path d="M15.8985 18.7441L15.9747 13.2891L28.7411 13.6701L24.5607 18.8133L15.8985 18.7441Z" fill="#70948A"/>
<path fill-rule="evenodd" clip-rule="evenodd" d="M17.1121 18.3836C18.4295 16.1016 17.6477 13.1837 15.3657 11.8662C13.0838 10.5488 10.1659 11.3306 8.8484 13.6126C7.53092 15.8945 8.31277 18.8124 10.5947 20.1299C12.8767 21.4474 15.7946 20.6655 17.1121 18.3836ZM15.0462 17.1908C15.7049 16.0498 15.314 14.5909 14.173 13.9321C13.0321 13.2734 11.5731 13.6643 10.9144 14.8053C10.2556 15.9463 10.6465 17.4052 11.7875 18.064C12.9285 18.7227 14.3874 18.3318 15.0462 17.1908Z" fill="#70948A"/>
<path d="M12.3613 42.4867L8.12944 39.0438L17.4296 27.9338L18.5229 34.8313L12.3613 42.4867Z" fill="#70948A"/>
<path fill-rule="evenodd" clip-rule="evenodd" d="M12.8313 41.3111C11.8583 38.8623 9.08449 37.6659 6.63573 38.6389C4.18697 39.6118 2.99059 42.3857 3.96354 44.8344C4.93649 47.2832 7.71033 48.4796 10.1591 47.5066C12.6078 46.5337 13.8042 43.7598 12.8313 41.3111ZM10.6143 42.192C10.1278 40.9676 8.74087 40.3694 7.51649 40.8559C6.29211 41.3423 5.69392 42.7292 6.18039 43.9536C6.66687 45.178 8.05379 45.7762 9.27817 45.2897C10.5025 44.8032 11.1007 43.4163 10.6143 42.192Z" fill="#70948A"/>
<path d="M34.0009 57.6479L28.783 59.2404L24.7479 45.3248L31.0829 48.2641L34.0009 57.6479Z" fill="#70948A"/>
<path fill-rule="evenodd" clip-rule="evenodd" d="M33.2873 56.6022C30.7121 56.0441 28.1721 57.6793 27.614 60.2544C27.0559 62.8296 28.6911 65.3696 31.2663 65.9277C33.8415 66.4858 36.3815 64.8506 36.9396 62.2754C37.4977 59.7003 35.8625 57.1602 33.2873 56.6022ZM32.782 58.9336C31.4944 58.6545 30.2244 59.4721 29.9454 60.7597C29.6663 62.0473 30.4839 63.3173 31.7715 63.5964C33.0591 63.8754 34.3291 63.0578 34.6081 61.7702C34.8872 60.4826 34.0696 59.2126 32.782 58.9336Z" fill="#70948A"/>
</svg>
